{"title":"Dark.Tide.2012.HDRiP.AC3-5.1.XviD-SiC","uid":7093606,"size":1471206800,"categoryP":"video","categoryS":"movies","magnet":"?xt=urn:btih:a78728e2a6c4896bba4f0a86b11cea9166fe8eae&amp;dn=Dark.Tide.2012.HDRiP.AC3-5.1.XviD-SiC&amp;tr=udp%3A%2F%2Ftracker.openbittorrent.com%3A80&amp;tr=udp%3A%2F%2Fopen.demonii.com%3A1337&amp;tr=udp%3A%2F%2Ftracker.coppersurfer.tk%3A6969&amp;tr=udp%3A%2F%2Fexodus.desync.com%3A6969","seeders":1,"leechers":0,"uploader":"MisterNobody","files":8,"time":1331464505,"description":"IMDB Link: &lt;a href=&quot;\nhttp://www.imdb.com/title/tt1507563/&quot; rel=&quot;nofollow&quot; target=&quot;_NEW&quot;&gt;\nhttp://www.imdb.com/title/tt1507563/&lt;/a&gt;\n \n Description:\n A professional diver tutor Brady returns to deep waters after nine years following an almost fatal encounter with a great white shark, bringing a happy couple Kate and Jeff. However, before they know it they discover that the nightmare from the deep is still lurking in the deep, more carnivorous and hungry than ever.\n \n MediaInfo:\n General\n Complete name                            : Dark.Tide.2012.HDRiP.AC3-5.1.XviD-SiC.avi\n Format                                   : AVI\n Format/Info                              : Audio Video Interleave\n File size                                : 1.36 GiB\n Duration                                 : 1h 53mn\n Overall bit rate                         : 1 707 Kbps\n \n Video\n ID                                       : 0\n Format                                   : MPEG-4 Visual\n Format profile                           : Advanced Simple@L5\n Format settings, BVOP                    : 2\n Format settings, QPel                    : No\n Format settings, GMC                     : No warppoints\n Format settings, Matrix                  : Default (H.263)\n Muxing mode                              : Packed bitstream\n Codec ID                                 : XVID\n Codec ID/Hint                            : XviD\n Duration                                 : 1h 53mn\n Bit rate                                 : 1 315 Kbps\n Width                                    : 720 pixels\n Height                                   : 304 pixels\n Display aspect ratio                     : 2.35:1\n Frame rate                               : 23.976 fps\n Color space                              : YUV\n Chroma subsampling                       : 4:2:0\n Bit depth                                : 8 bits\n Scan type                                : Progressive\n Compression mode                         : Lossy\n Bits/(Pixel*Frame)                       : 0.251\n Stream size                              : 1.05 GiB (77%)\n Writing library                          : XviD 1.1.2 (UTC 2006-11-01)\n \n Audio\n ID                                       : 1\n Format                                   : AC-3\n Format/Info                              : Audio Coding 3\n Mode extension                           : CM (complete main)\n Codec ID                                 : 2000\n Duration                                 : 1h 53mn\n Bit rate mode                            : Constant\n Bit rate                                 : 384 Kbps\n Channel(s)                               : 6 channels\n Channel positions                        : Front: L C R, Side: L R, LFE\n Sampling rate                            : 48.0 KHz\n Bit depth                                : 16 bits\n Compression mode                         : Lossy\n Stream size                              : 313 MiB (22%)\n Alignment                                : Aligned on interleaves\n Interleave, duration                     : 64 ms (1.53 video frames)\n Interleave, preload duration             : 192 ms\n Title                                    : darktide\n \n \n \n Note : Enjoy the new Shark Attack thriller starring Halle Berry before it hits theatres on March 30. Encoded from a 720p HD wmv Digital VOD Rental. Source included DD 5.1 so included that aswell. Did the usual stuff, turned out nice.\n \n Source: 720p wmv Digital VOD Rental - Our Own\n \n Enjoy!\n","torrent":{"xt":"urn:btih:a78728e2a6c4896bba4f0a86b11cea9166fe8eae","amp;dn":"Dark.Tide.2012.HDRiP.AC3-5.1.XviD-SiC","amp;tr":["udp%3A%2F%2Ftracker.openbittorrent.com%3A80","udp%3A%2F%2Fopen.demonii.com%3A1337","udp%3A%2F%2Ftracker.coppersurfer.tk%3A6969","udp%3A%2F%2Fexodus.desync.com%3A6969"],"infoHash":"a78728e2a6c4896bba4f0a86b11cea9166fe8eae","infoHashBuffer":{"type":"Buffer","data":[167,135,40,226,166,196,137,107,186,79,10,134,177,28,234,145,102,254,142,174]},"announce":[],"urlList":[]}}